<svg width="350" height="350" viewBox="0 0 350 350" fill="none" xmlns="http://www.w3.org/2000/svg">
<path d="M0 16C0 7.16343 7.16344 0 16 0H334C342.837 0 350 7.16344 350 16V350H0V16Z" fill="#4A4A4A"/>
<mask id="mask0_164_77" style="mask-type:alpha" maskUnits="userSpaceOnUse" x="135" y="135" width="80" height="80">
<rect x="135" y="135" width="80" height="80" fill="#D9D9D9"/>
</mask>
<g mask="url(#mask0_164_77)">
<path d="M148.333 201.667C146.5 201.667 144.93 201.014 143.625 199.708C142.319 198.403 141.667 196.833 141.667 195V155C141.667 153.167 142.319 151.597 143.625 150.292C144.93 148.986 146.5 148.333 148.333 148.333H201.667C203.5 148.333 205.069 148.986 206.375 150.292C207.68 151.597 208.333 153.167 208.333 155V195C208.333 196.833 207.68 198.403 206.375 199.708C205.069 201.014 203.5 201.667 201.667 201.667H148.333ZM148.333 195H201.667V155H148.333V195ZM155 188.333H195L182.5 171.667L172.5 185L165 175L155 188.333Z" fill="#A4A4A4"/>
</g>
</svg>
